<?xml version="1.0" encoding="UTF-8" standalone="no"?><svg xmlns="http://www.w3.org/2000/svg" xmlns:xlink="http://www.w3.org/1999/xlink" contentScriptType="text/ecmascript" fill="#000000" width="257.36pt" zoomAndPan="magnify" contentStyleType="text/css" viewBox="0 0 257.36 257.02" height="257.02pt" preserveAspectRatio="xMidYMid meet" version="1.1">
 <g id="surface1">
  <g id="change1_1"><path fill="#b1d4e0" d="m230.18 128.5c0 56.05-45.43 101.48-101.48 101.48-56.052 0-101.48-45.43-101.48-101.48-0.001-56.047 45.428-101.48 101.48-101.48 56.05 0.003 101.48 45.433 101.48 101.48"/></g>
  <g id="change2_1"><path fill="#051d40" d="m252.36 128.5c-0.25 46.33-26.32 88.81-67.41 110.16-41.57 21.6-92.919 16.48-130.34-11.12-37.626-27.76-55.817-76.06-47.489-121.8 8.199-45.021 42.156-82.201 85.688-95.611 37.411-11.524 78.641-3.7892 109.98 19.336 31.19 23.015 49.36 60.484 49.57 99.035 0.02 3.22 5.02 3.23 5 0-0.25-44.359-23.21-85.609-60.72-109.28-37.93-23.935-86.92-25.349-126.71-5.197-39.231 19.864-65.34 59.77-69.399 103.3-4.1365 44.35 16.227 87.9 51.555 114.54 35.898 27.06 85.074 32.51 126.38 15.3 40.38-16.83 69.75-54.24 77.1-97.26 1.21-7.07 1.75-14.24 1.79-21.4 0.02-3.23-4.98-3.22-5 0"/></g>
 </g>
</svg>