<?xml version="1.0" encoding="UTF-8" standalone="no"?><svg xmlns="http://www.w3.org/2000/svg" xmlns:xlink="http://www.w3.org/1999/xlink" contentScriptType="text/ecmascript" fill="#000000" width="419" zoomAndPan="magnify" contentStyleType="text/css" viewBox="-0.7 -0.2 419.0 334.7" height="334.7" preserveAspectRatio="xMidYMid meet" version="1"><g id="change1_1"><path fill="#8a9099" d="M206.3854,268.7007c-5.8594,17.6711-20.2565,26.1079-20.2565,26.1079s1.0291,11.5788,6.6142,14.6793 c8.9443,2.0251,12.1957,8.9639,8.9861,11.6827c-4.4197,3.7438-22.8625,5.3293-26.4132,1.8319 c-24.9627-20.8309-23.832-31.3981-16.7912-40.0641c-5.4969-4.8234-12.6822-9.0241-16.811-13.8007L206.3854,268.7007z M343.7784,292.0733c-2.4151,0.0258-4.0059,0.0195-4.0059,0.0195s-21.4458-38.8265-19.2752-47.8368l-30.712,21.3436 c7.7026,13.8485,22.5994,45.1121,46.504,40.2797C345.5795,302.438,354.4072,291.9596,343.7784,292.0733z M370.2751,23.5113 c0,0,3.2848-20.3884-17.7718-21.8534s-28.3103,22.1087-24.2003,36.1275c4.11,14.0188,22.7999,8.0492,22.7999,8.0492 L370.2751,23.5113z"/></g><g id="change2_1"><path fill="#bcbec0" d="M378.6314,105.6242c-19.4966,4.3213-19.097,10.3988-25.5724,70.7561 c-6.4754,60.3573-61.7342,93.4404-69.0599,92.1807c-6.5131,6.5937-8.1531,51.6302-8.1531,51.6302s0.7907,0.1645,3.3859,1.3394 c9.6832,4.384-3.812,9.8051-13.5443,7.9525c-22.9644-8.2108-19.7443-39.3376-19.1857-55.1743 c-14.4723,0.9043-70.8249,1.0444-77.7418,0.3649c-5.8594,17.6711-20.2565,26.1079-20.2565,26.1079s1.0291,11.5788,6.6142,14.6793 c8.9443,2.0251,12.1957,8.9639,8.9861,11.6827c-4.4197,3.7438-22.8625,5.3292-26.4132,1.8319 c-24.9627-20.8309-26.2355-30.7857-19.1947-39.4518C98.3521,271.8478,87.81,254.3107,83.824,238.2018 c-0.8511,6.0665-1.6313,13.6767-2.0737,22.9421c-1.1598,24.2856-3.8696,47.2021-15.6171,56.1741 c-11.7475,8.972-22.5154,6.8397-18.7402,2.7154c-26.394,14.4702-48.1323,3.7859-47.3736,0.1779 c0.7588-3.608,3.3663-3.5312,27.7983-8.9833c24.432-5.4521,34.3641-23.6745,40.624-63.4245 c6.2599-39.7499,18.2611-48.4724,18.2611-48.4724c10.0938-23.7131,35.8824-41.2519,82.4773-35.6743 c79.522,9.5192,100.7027-16.4772,104.8571-51.196c2.6024-21.7492-0.005-46.1631,7.4001-65.9849 c-3.8585-0.954-7.3976-3.1819-9.3884-7.723c-6.0869-13.8839-0.2937-38.4397,23.6837-38.749 c16.6569-0.215,20.4944,8.6972,21.287,14.1616c27.6356-8.596,55.2802,4.2326,70.2811,27.5123 c16.9711,26.3372,28.1112,15.8345,29.4736,36.0356C418.1364,97.9143,390.5841,102.9749,378.6314,105.6242z M378.6314,105.6242 c-19.4966,4.3213-19.097,10.3988-25.5724,70.7561c-6.4754,60.3573-61.7342,93.4404-69.0599,92.1807 c-6.5131,6.5937-8.1531,51.6302-8.1531,51.6302s0.7907,0.1645,3.3859,1.3394c9.6832,4.384-3.812,9.8051-13.5443,7.9525 c-22.9644-8.2108-19.7443-39.3376-19.1857-55.1743c-14.4723,0.9043-70.8249,1.0444-77.7418,0.3649 c-5.8594,17.6711-20.2565,26.1079-20.2565,26.1079s1.0291,11.5788,6.6142,14.6793c8.9443,2.0251,12.1957,8.9639,8.9861,11.6827 c-4.4197,3.7438-22.8625,5.3292-26.4132,1.8319c-24.9627-20.8309-26.2355-30.7857-19.1947-39.4518 C98.3521,271.8478,87.81,254.3107,83.824,238.2018c-0.8511,6.0665-1.6313,13.6767-2.0737,22.9421 c-1.1598,24.2856-3.8696,47.2021-15.6171,56.1741c-11.7475,8.972-22.5154,6.8397-18.7402,2.7154 c-26.394,14.4702-48.1323,3.7859-47.3736,0.1779c0.7588-3.608,3.3663-3.5312,27.7983-8.9833 c24.432-5.4521,34.3641-23.6745,40.624-63.4245c6.2599-39.7499,18.2611-48.4724,18.2611-48.4724 c10.0938-23.7131,35.8824-41.2519,82.4773-35.6743c79.522,9.5192,100.7027-16.4772,104.8571-51.196 c2.6024-21.7492-0.005-46.1631,7.4001-65.9849c-3.8585-0.954-7.3976-3.1819-9.3884-7.723 c-6.0869-13.8839-0.2937-38.4397,23.6837-38.749c16.6569-0.215,20.4944,8.6972,21.287,14.1616 c27.6356-8.596,55.2802,4.2326,70.2811,27.5123c16.9711,26.3372,28.1112,15.8345,29.4736,36.0356 C418.1364,97.9143,390.5841,102.9749,378.6314,105.6242z"/></g><g id="change3_1"><path fill="#6f767d" d="M283.012,31.7961c-3.6274-8.2739,0.1471-20.2932,12.6414-21.2064 c8.3844-0.6129,11.6024,4.8702,12.177,7.1252c-1.4564,0.608-2.2924,1.0193-3.7402,1.7807 c-8.9761,4.7206-13.6428,9.0659-17.2629,16.2752C285.2523,35.0235,283.8828,33.7825,283.012,31.7961z M381.7629,93.4899 c-0.6141,0.0624-1.2533,0.0688-1.9185,0.0194c-7.4416-0.5577-8.6454-7.439-8.501-11.7293c0.019-0.5765,0.4791-1.0296,1.0602-1.0209 c0.5664,0.0133,1.0103,0.4925,0.9913,1.0701c-0.0132,0.4251-0.732,9.0417,6.6214,9.592c2.1084,0.1584,3.8687-0.3795,5.2394-1.594 c2.9123-2.5818,3.264-7.4154,3.2668-7.4639c0.0382-0.5764,0.5186-1.0151,1.0924-0.9862c0.5649,0.0319,0.9929,0.5241,0.9567,1.1003 c-0.0148,0.2334-0.402,5.7437-3.968,8.9142C385.2463,92.5986,383.6233,93.301,381.7629,93.4899z M277.6485,328.6828 c0.8032-2.9894-2.9719-4.4973-3.1321-4.5626c-0.5117-0.2065-0.7603-0.7883-0.5547-1.3001c0.2065-0.5107,0.7844-0.7595,1.2972-0.5568 c1.6791,0.6689,4.4551,2.6076,4.4917,5.575C279.3456,328.149,277.9295,328.6911,277.6485,328.6828z M275.7312,329.2064 c-0.3957-2.4908-4.0929-4.5756-4.8745-4.9905c-0.4857-0.2585-1.092-0.0742-1.3516,0.4135c-0.2586,0.4877-0.0732,1.093,0.4135,1.3526 c1.5708,0.8367,3.8625,2.5009,3.8303,3.5913C274.2124,329.5506,275.327,329.3294,275.7312,329.2064z M347.6669,297.3924 c-1.6776-2.6211-5.2045-2.6359-7.0129-2.2137c-0.5381,0.1258-0.8724,0.6631-0.7466,1.2012 c0.1258,0.5381,0.6631,0.8705,1.2012,0.7466c0.0424-0.0114,4.1438-0.8929,5.1996,2.0379 C346.5822,298.9128,347.5765,297.6801,347.6669,297.3924z M344.8922,300.5905c-1.7497-1.8154-5.9723-1.4118-6.8495-1.3059 c-0.5481,0.0659-0.9379,0.5634-0.872,1.1115c0.0659,0.549,0.5705,0.9322,1.1115,0.8739c1.6298-0.1953,4.2159-0.1156,5.076,0.6143 C343.5555,301.7813,344.6439,300.9188,344.8922,300.5905z M201.2019,321.5641c-0.5186-5.1344-5.2437-8.3158-5.4627-8.461 c-0.459-0.3037-1.0788-0.1764-1.3839,0.2826c-0.3047,0.46-0.1788,1.0802,0.2801,1.3858c0.0477,0.0319,4.657,3.1554,4.6119,7.7886 C199.9895,322.2746,200.9539,321.7899,201.2019,321.5641z M196.0512,323.5751c-0.7906-3.5213-5.7295-6.591-6.3413-6.9595 c-0.4727-0.2875-1.0874-0.1317-1.3719,0.3396c-0.285,0.4733-0.1327,1.0874,0.3401,1.3729c1.3319,0.8038,4.9307,3.4351,5.4236,5.6822 C194.3631,323.9911,195.7097,323.7237,196.0512,323.5751z M162.9983,327.8864c-0.2418-5.9443-5.6413-8.3824-5.7007-8.4084 c-0.505-0.2191-1.096,0.0097-1.317,0.5152c-0.2216,0.5064,0.0088,1.0955,0.5146,1.3175c0.0495,0.0213,4.788,2.1502,4.4968,7.4637 C161.3036,328.6804,162.5973,328.1716,162.9983,327.8864z M157.5889,329.7481c-0.7604-3.539-5.7363-6.6317-6.3506-7.0017 c-0.4727-0.2885-1.0874-0.1317-1.3719,0.3396c-0.2851,0.4733-0.1327,1.0874,0.3401,1.3729 c1.3318,0.8037,4.9303,3.4348,5.4235,5.6818C155.8936,330.0987,157.173,329.8839,157.5889,329.7481z"/></g><g id="change4_1"><path fill="#f1f1f2" d="M168.76,274.6736c0,0,1.1019-5.6901,0.9641-9.8699c5.1155-0.8932,55.1079-1.3782,74.5497-1.3275 c2.7992,2.4313,2.2281,10.8326,2.2281,10.8326S196.5125,276.8149,168.76,274.6736z M353.059,176.3802 c6.4754-60.3573,6.0758-66.4348,25.5724-70.7561c-21.9573,1.1801-49.321-9.0212-64.1388,6.7233 c-14.8178,15.7445-7.6863,39.443-5.3164,38.7298c2.3698-0.7132,4.3487-5.8745,4.3487-5.8745s3.3127,11.5808,4.6007,21.0141 c1.288,9.4333,1.1878,21.6965,3.8201,20.9911c2.6323-0.7054,4.9608-8.9883,4.9608-8.9883s-0.0234,9.6557-2.2251,22.379 c-6.0578,35.0088-27.5673,45.4473-34.5275,52.4845c-6.9602,7.0373-6.1549,15.4776-6.1549,15.4776 C291.3248,269.8206,346.5836,236.7375,353.059,176.3802z M349.7212,77.0356c9.323-0.3377,18.0168-5.3802,17.4836-21.2543 c-0.515-15.3304-13.6996-18.7387-21.6143-18.2309c-8.4935,0.5449-17.2893,6.8614-16.087,22.5161 C330.7149,75.8425,341.7176,77.3255,349.7212,77.0356z M349.7212,77.0356c9.323-0.3377,18.0168-5.3802,17.4836-21.2543 c-0.515-15.3304-13.6996-18.7387-21.6143-18.2309c-8.4935,0.5449-17.2893,6.8614-16.087,22.5161 C330.7149,75.8425,341.7176,77.3255,349.7212,77.0356z"/></g><g id="change1_2"><path fill="#8a9099" opacity="0.4" d="M222.7317,183.0876c-20.9626-1.6483-11.5989-11.1421,2.6461-10.8598 C239.6228,172.5101,243.6944,184.7359,222.7317,183.0876z M193.3589,178.8254c-9.6707,0.8918-15.3135,9.3085-0.8763,8.8365 C206.9198,187.19,203.0295,177.9336,193.3589,178.8254z M213.1223,189.5041c-6.7623,0.6236-10.7082,6.5091-0.6128,6.179 C222.6049,195.3532,219.8846,188.8805,213.1223,189.5041z"/></g><g id="change5_1"><path fill="#231f20" d="M343.9301,74.7733c-2.5199,0.0913-5.4083-0.0398-8.0504-0.9898c-3.259-2.0721-5.9342-6.4765-6.477-13.5441 c-0.3951-5.1442,0.318-9.6878,1.7936-12.7011c2.503-2.9138,5.9873-4.3015,9.4116-4.5211 c6.3654-0.4084,16.9693,2.3327,17.3835,14.6623C358.4202,70.4463,351.4283,74.5017,343.9301,74.7733z M400.7387,75.4264 c1.1974,1.6585,8.6905,4.8968,13.2188,4.298c4.34-0.5739,4.1744-5.6994,3.3196-8.2288c-1.9148-5.666-7.7435-5.3613-10.661-4.799 C399.4712,68.0737,398.5777,72.4331,400.7387,75.4264z"/></g></svg>